Coordinates
version=1
nRows=6
nColumns=36
inDegrees=yes

Units are S.I. units (second, meters, Newtons, ...)
If the header above contains a line with 'inDegrees', this indicates whether rotational values are in degrees (yes) or radians (no).

endheader
time	pelvis_tilt	pelvis_list	pelvis_rotation	pelvis_tx	pelvis_ty	pelvis_tz	hip_flexion_r	hip_adduction_r	hip_rotation_r	knee_angle_r	knee_angle_r_beta	ankle_angle_r	subtalar_angle_r	mtp_angle_r	hip_flexion_l	hip_adduction_l	hip_rotation_l	knee_angle_l	knee_angle_l_beta	ankle_angle_l	subtalar_angle_l	mtp_angle_l	lumbar_extension	lumbar_bending	lumbar_rotation	arm_flex_r	arm_add_r	arm_rot_r	elbow_flex_r	pro_sup_r	arm_flex_l	arm_add_l	arm_rot_l	elbow_flex_l	pro_sup_l
      1.74000000	    -23.87624463	     -3.15704844	      2.72289793	     -0.33292281	      0.82421778	     -0.55534725	     72.43692302	      2.33120198	     -0.99819931	     77.03381449	      1.34449370	     26.01476980	    -16.93595855	     -7.48252580	     73.85526171	     -5.27720121	      1.40504840	     76.93165390	      1.34271066	     27.66220239	     -7.06157595	     -7.48252580	     -2.86056379	     -1.83932734	     -4.93614716	    179.97048876	   -159.76393195	    176.64802772	    130.17874594	    112.51152644	    179.96998272	   -159.52612237	    177.98524544	    118.59202639	     92.10953905
      1.75000000	    -26.21870187	     -2.99323316	      2.54316854	     -0.33367930	      0.82278087	     -0.55443716	     74.70873433	      2.14772777	     -0.92529753	     76.52356715	      1.33558820	     25.82661597	    -16.58845086	     -7.48278591	     75.99734757	     -5.52292627	      0.80686322	     76.29010251	      1.33151348	     27.37430770	     -6.64644891	     -7.48278591	     -1.35592781	     -2.08762029	     -5.20575612	    179.97232124	   -159.26586904	    177.21426318	    132.77951215	    112.48944648	    179.97091297	   -157.22057061	    177.55762512	    122.38562108	     92.56313366
      1.76000000	    -28.18387884	     -2.83846079	      2.37179294	     -0.33455845	      0.82207350	     -0.55368082	     76.57276018	      2.00485626	     -0.84370707	     75.99469809	      1.32635770	     25.56923199	    -16.28033747	     -7.48300346	     77.73867326	     -5.77200685	      0.26356584	     75.65800534	      1.32048130	     27.09041796	     -6.21317239	     -7.48300346	     -0.32266793	     -2.30168216	     -5.36442185	    179.97366035	   -158.50188691	    177.45856348	    135.22833173	    112.46586935	    179.97147662	   -154.78610981	    176.77529065	    125.88587171	     92.80085861
      1.77000000	    -29.88740903	     -2.60759393	      2.25189492	     -0.33557077	      0.82192878	     -0.55323121	     78.16866169	      1.80899887	     -0.68573762	     75.47386694	      1.31726748	     25.22384609	    -16.00601348	     -7.48329215	     79.15432552	     -5.91186380	     -0.32920937	     74.96438193	      1.30837529	     26.76598414	     -5.88675434	     -7.48329215	      0.39316696	     -2.53678265	     -5.50915198	    179.97465593	   -157.69292308	    177.46662487	    137.44190135	    112.29851633	    179.97161192	   -152.30715117	    175.60772313	    129.00770197	     92.68869437
      1.78000000	    -31.31588302	     -2.57651918	      2.12874494	     -0.33670308	      0.82213430	     -0.55298181	     79.41511971	      1.73081956	     -0.73500241	     74.84177523	      1.30623540	     25.07108801	    -15.80170794	     -7.48338258	     80.35939180	     -6.04013560	     -0.60193771	     74.34737602	      1.29760650	     26.59510404	     -5.71431218	     -7.48338258	      0.74160718	     -2.49982190	     -5.52219897	    179.97521824	   -156.52345005	    177.04266275	    139.56654537	    112.26671314	    179.97141376	   -149.99785968	    174.14462565	    131.74850896	     92.72609662
      1.79000000	    -32.41598166	     -2.41334872	      2.10981617	     -0.33808162	      0.82257775	     -0.55298810	     80.41276858	      1.51179268	     -0.70082039	     74.37138349	      1.29802551	     24.61258434	    -15.72879706	     -7.48722275	     81.22546993	     -6.00707470	     -0.97995872	     73.72291575	      1.28670761	     26.06506435	     -5.80593242	     -7.48722275	      0.62980921	     -2.59152508	     -5.54904617	    179.97543410	   -155.20189828	    176.48345452	    141.88381335	    108.13532341	    179.97074064	   -147.39307302	    172.89236386	    135.46240750	     82.38502825
